<svg id="Component_16_2" data-name="Component 16 – 2" xmlns="http://www.w3.org/2000/svg" width="192.001" height="57.12" viewBox="0 0 192.001 57.12">
  <g id="Group_1067" data-name="Group 1067">
    <g id="Group_1041" data-name="Group 1041" transform="translate(117.626 0.313)">
      <path id="Path_989" data-name="Path 989" d="M125.34,22.041c.416-.262.789-.539,1.151-.807,1.741-1.288,3.385-2.506,8.248-1.048,5.757,1.728,6.657,1.234,7.463-.4,1.193-2.418,3.644-2.143,8.679-.616.68.206,1.3.406,1.868.588,2.087.669,3.467,1.11,4.074.719.32-.206.526-.738.629-1.626a2.83,2.83,0,0,1,1.234-2.241c1.495-.908,3.908-.1,6.907,1.042l.1.037c2.284.873,4.872,1.861,5.638,1.258.238-.187.319-.6.242-1.217a2.637,2.637,0,0,0-.211-1.095,2.544,2.544,0,0,1-.118-2.416c.444-.74,1.372-1.067,2.76-.975a23.6,23.6,0,0,1,9.248,2.811c.619.323,1.28.684,1.974,1.065,1.586.867,3.325,1.812,5.142,2.622L194.689.321H125.294l-4.98,22.317C121.63,22.833,123.857,22.973,125.34,22.041Z" transform="translate(-120.314 -0.321)" fill="#081fe4"/>
      <path id="Path_990" data-name="Path 990" d="M121.534,21.8a5.806,5.806,0,0,0,3.312-.57c.389-.243.735-.5,1.072-.751a7.7,7.7,0,0,1,5.028-1.916,14.451,14.451,0,0,1,4.1.7,19.692,19.692,0,0,0,4.868,1.041c.9,0,1.1-.241,1.438-.934a4.028,4.028,0,0,1,3.96-2.335,21.51,21.51,0,0,1,5.88,1.216c.685.208,1.311.409,1.882.592a14.909,14.909,0,0,0,3.148.819.778.778,0,0,0,.078,0,2.875,2.875,0,0,0,.207-.9,3.748,3.748,0,0,1,1.7-2.964,3.991,3.991,0,0,1,2.1-.534,17.448,17.448,0,0,1,5.663,1.5l.1.039a19.366,19.366,0,0,0,4.577,1.377,2.414,2.414,0,0,0-.021-.3l-.007-.108a2.281,2.281,0,0,0-.084-.63,3.515,3.515,0,0,1-.107-3.4c.436-.725,1.463-1.594,3.663-1.446a24.564,24.564,0,0,1,9.636,2.918c.617.323,1.275.681,1.966,1.06,1.11.608,2.528,1.384,4.006,2.1l3.8-17.049H126.1Z" transform="translate(-120.341 -0.343)" fill="#fffe37"/>
    </g>
    <path id="Path_991" data-name="Path 991" d="M34.373,21.315l.423-1.873H32.934l-.146.212a5.715,5.715,0,0,1-.458.6,1.214,1.214,0,0,1-.353.278,1.79,1.79,0,0,1-.5.156c-.226.038-.514.07-.869.095-.338.027-.631.049-.884.06s-.42.021-.547.021H27.039c-1.65,0-2.488-.369-2.488-1.094a3.459,3.459,0,0,1,.15-1l.118-.583h6.468a13.812,13.812,0,0,0,1.69-.084A4.445,4.445,0,0,0,34.2,17.78a2.271,2.271,0,0,0,.933-.75,6.406,6.406,0,0,0,.606-1.082,10.362,10.362,0,0,0,.417-1.15q.2-.667.366-1.4t.266-1.46a9.838,9.838,0,0,0,.1-1.345,5.044,5.044,0,0,0-.776-2.825,4.273,4.273,0,0,0-2.215-1.7q-.364-.123-.714-.23a5.8,5.8,0,0,0-.891-.178q-.5-.063-1.239-.085c-.479-.014-1.094-.02-1.84-.02H26.246a15.155,15.155,0,0,0-4.5.57A7.784,7.784,0,0,0,18.7,7.868a8.4,8.4,0,0,0-1.919,2.821A31.312,31.312,0,0,0,15.5,14.416c-.216.634-.427,1.386-.629,2.237s-.408,1.831-.616,2.924q-.227.981-.355,1.738Z" transform="translate(-0.31 -0.124)" fill="#081fe4"/>
    <path id="Path_992" data-name="Path 992" d="M11.221,21.191,15.082,4.2l.189-.931a4.186,4.186,0,0,0,.179-1.2C15.449,1.3,15.112,0,12.857,0H4.325L3.9,1.941l.456.117a1.61,1.61,0,0,1,.66.268A.463.463,0,0,1,5.1,2.64,10.136,10.136,0,0,1,4.8,4.277L.988,21.191Z" transform="translate(-0.022)" fill="#081fe4"/>
    <g id="Group_1042" data-name="Group 1042" transform="translate(47.984 30.324)">
      <path id="Path_993" data-name="Path 993" d="M71.036,56.368a5.665,5.665,0,0,1,.116-1.045l2.638-11.73a1.234,1.234,0,0,0,.038-.283V43.03c0-.588-.271-.884-.814-.884a.885.885,0,0,0-.718.363,3.185,3.185,0,0,0-.485,1.285L69.523,54.079a10.868,10.868,0,0,0-.213,1.084,5.559,5.559,0,0,0-.059.643.993.993,0,0,0,.214.682,1.5,1.5,0,0,0,.834.363l-.233,1.084H62.114q-2.056,0-2.056-1.567a5.592,5.592,0,0,1,.117-1.045L62.658,44.2q.116-.562.174-.8a1.784,1.784,0,0,0,.059-.4.751.751,0,0,0-.854-.844.857.857,0,0,0-.756.363,4.351,4.351,0,0,0-.485,1.365l-2.289,10.2a10.6,10.6,0,0,0-.213,1.084,5.5,5.5,0,0,0-.058.643.941.941,0,0,0,.233.682,1.622,1.622,0,0,0,.853.363l-.271,1.084H51.137q-2.056,0-2.056-1.567a5.224,5.224,0,0,1,.116-1.045L52.533,40.38a11.722,11.722,0,0,0,.311-1.768.871.871,0,0,0-.234-.663,1.759,1.759,0,0,0-.853-.342l.233-1.084h7.952Q62,36.523,62,38.088a2.258,2.258,0,0,1-.058.524c-.039.16-.123.547-.252,1.164l1.745-2.29a4.647,4.647,0,0,1,.408-.5,1.33,1.33,0,0,1,.388-.283,1.769,1.769,0,0,1,.5-.14,5.436,5.436,0,0,1,.718-.04H69.1a5.977,5.977,0,0,1,2.91.5,1.97,1.97,0,0,1,.814,1.827c0,.08-.007.208-.02.381a2.871,2.871,0,0,1-.1.543l1.629-2.29a2.427,2.427,0,0,1,.853-.764,3.261,3.261,0,0,1,1.319-.2h3.53a6.219,6.219,0,0,1,2.89.481,1.787,1.787,0,0,1,.833,1.688,9.286,9.286,0,0,1-.077.983A11.009,11.009,0,0,1,83.41,41.1L80.5,54.079a10.912,10.912,0,0,0-.214,1.084,5.727,5.727,0,0,0-.058.643,1,1,0,0,0,.213.682,1.56,1.56,0,0,0,.873.363l-.272,1.084H73.092Q71.035,57.936,71.036,56.368Z" transform="translate(-49.081 -31.14)" fill="#081fe4"/>
      <path id="Path_994" data-name="Path 994" d="M97.737,57.936h-.97q-2.056,0-2.055-1.567a5.519,5.519,0,0,1,.115-1.005,2.808,2.808,0,0,0,.078-.321c.025-.134.064-.294.116-.483l-1.591,2.131a3.3,3.3,0,0,1-.639.641,2.641,2.641,0,0,1-.8.382,5.091,5.091,0,0,1-1.145.181q-.678.041-1.726.04a10.7,10.7,0,0,1-1.765-.141,4.432,4.432,0,0,1-1.494-.522,2.8,2.8,0,0,1-1.047-1.065,3.468,3.468,0,0,1-.388-1.729,12.332,12.332,0,0,1,.155-1.827q.155-1.025.407-2.049t.562-1.968a9.8,9.8,0,0,1,.66-1.587A7.017,7.017,0,0,1,87.245,45.5,4.514,4.514,0,0,1,88.564,44.5a6,6,0,0,1,1.726-.543,14.528,14.528,0,0,1,2.327-.16h3.3q1.783,0,1.784-1.124a.729.729,0,0,0-.329-.7,2.455,2.455,0,0,0-1.1-.181H92.112a2.779,2.779,0,0,1-1.707-.382A1.607,1.607,0,0,1,89.94,40.1a4.291,4.291,0,0,1,.078-.844l.62-2.731h11.869a4.838,4.838,0,0,1,3.3,1.024,3.68,3.68,0,0,1,1.164,2.913,8.965,8.965,0,0,1-.273,1.969l-2.6,11.65q-.154.644-.213,1.084a5.342,5.342,0,0,0-.059.643.98.98,0,0,0,.213.7,1.608,1.608,0,0,0,.835.342l-.233,1.084Zm-2.211-10.2q-.968,0-1.241,1.164l-.31,1.446a4.027,4.027,0,0,0-.116.542,3.142,3.142,0,0,0-.039.462.738.738,0,0,0,.251.583.989.989,0,0,0,.679.221h.814l.97-4.418Z" transform="translate(-49.871 -31.14)" fill="#081fe4"/>
      <path id="Path_995" data-name="Path 995" d="M111.386,57.936h-.933a2.474,2.474,0,0,1-1.552-.381,1.5,1.5,0,0,1-.464-1.226,3.988,3.988,0,0,1,.115-1.005l.194-.964,3.1-13.979a11.779,11.779,0,0,0,.312-1.768.872.872,0,0,0-.235-.663,1.754,1.754,0,0,0-.853-.342l.234-1.084h7.913q2.056,0,2.057,1.605a3.38,3.38,0,0,1-.06.543q-.059.343-.253,1.266l1.553-2.29a3.792,3.792,0,0,1,.447-.582,1.728,1.728,0,0,1,.446-.342,1.647,1.647,0,0,1,.563-.16,7.18,7.18,0,0,1,.833-.04h3.3l-.892,4.1a3.048,3.048,0,0,1-.951,1.867,4.046,4.046,0,0,1-2.269.462H122.9a5.706,5.706,0,0,0-1.4.142,1.769,1.769,0,0,0-.912.561,3.659,3.659,0,0,0-.64,1.226c-.18.537-.374,1.258-.581,2.169l-1.552,7.03a11.041,11.041,0,0,0-.31,1.728.944.944,0,0,0,.232.682,1.63,1.63,0,0,0,.853.363l-.232,1.084Z" transform="translate(-50.407 -31.14)" fill="#081fe4"/>
      <path id="Path_996" data-name="Path 996" d="M126.886,56.245a4.325,4.325,0,0,1,.154-1.045l3.336-14.943a9.712,9.712,0,0,0,.273-1.768.918.918,0,0,0-.214-.663,1.681,1.681,0,0,0-.873-.342l.272-1.084h7.914q2.053,0,2.055,1.525a6.287,6.287,0,0,1-.116,1.085l-3.336,14.945a12.265,12.265,0,0,0-.312,1.728.941.941,0,0,0,.235.682,1.618,1.618,0,0,0,.852.363l-.233,1.084h-7.951Q126.885,57.813,126.886,56.245ZM140.5,35.275h-6.478q-2.056,0-2.056-1.567a5.572,5.572,0,0,1,.116-1.044l.388-1.646h6.478q2.055,0,2.056,1.566a3.245,3.245,0,0,1-.039.461c-.026.174-.065.369-.116.583Z" transform="translate(-50.819 -31.017)" fill="#081fe4"/>
      <path id="Path_997" data-name="Path 997" d="M153.992,44.2q.116-.562.173-.8a1.785,1.785,0,0,0,.059-.4.751.751,0,0,0-.854-.844.858.858,0,0,0-.756.363,4.276,4.276,0,0,0-.485,1.365l-2.29,10.2a10.831,10.831,0,0,0-.212,1.084,5.556,5.556,0,0,0-.059.643.944.944,0,0,0,.232.682,1.637,1.637,0,0,0,.853.363l-.27,1.084H142.47q-2.055,0-2.056-1.567a5.229,5.229,0,0,1,.117-1.045l3.336-14.943a11.8,11.8,0,0,0,.31-1.768.875.875,0,0,0-.233-.663,1.763,1.763,0,0,0-.853-.342l.232-1.084h7.953q2.055,0,2.055,1.565a2.259,2.259,0,0,1-.058.524c-.039.16-.122.547-.251,1.164l1.744-2.29a5.044,5.044,0,0,1,.407-.5,1.339,1.339,0,0,1,.39-.283,1.763,1.763,0,0,1,.5-.14,5.457,5.457,0,0,1,.718-.04h3.647a5.967,5.967,0,0,1,2.91.5,1.968,1.968,0,0,1,.815,1.827,14.865,14.865,0,0,1-.388,2.209l-2.909,13.017a10.359,10.359,0,0,0-.214,1.084,5.614,5.614,0,0,0-.06.643.989.989,0,0,0,.214.7,1.615,1.615,0,0,0,.834.342l-.233,1.084h-7.951q-2.056,0-2.056-1.567a5.583,5.583,0,0,1,.116-1.045Z" transform="translate(-51.122 -31.14)" fill="#081fe4"/>
      <path id="Path_998" data-name="Path 998" d="M183.474,54.44a6.033,6.033,0,0,1-.8,1.909,3.012,3.012,0,0,1-1.222,1.045,5.49,5.49,0,0,1-1.765.441q-1.028.1-2.385.1h-4q-2.327,0-3.937-.061a5.954,5.954,0,0,1-2.464-.5,4.329,4.329,0,0,1-1.493-1.346,3.885,3.885,0,0,1-.562-2.228,12.034,12.034,0,0,1,.116-1.528q.116-.881.427-2.25.309-1.645.6-2.892t.6-2.169a30.747,30.747,0,0,1,1.241-3.656,7.8,7.8,0,0,1,1.765-2.632,7.081,7.081,0,0,1,2.793-1.605,14.056,14.056,0,0,1,4.247-.543h2.91q1.085,0,1.784.019c.465.016.853.04,1.164.08a4.958,4.958,0,0,1,.795.162c.219.067.446.14.678.22a3.7,3.7,0,0,1,1.92,1.488,4.538,4.538,0,0,1,.68,2.529,9.508,9.508,0,0,1-.1,1.266c-.066.47-.15.938-.253,1.406s-.219.918-.348,1.346a9.865,9.865,0,0,1-.388,1.084,6,6,0,0,1-.543.985,1.749,1.749,0,0,1-.719.583,3.833,3.833,0,0,1-1.067.281,12.775,12.775,0,0,1-1.591.08h-6.711l-.194.964a3.787,3.787,0,0,0-.154,1.085q0,1.566,2.908,1.567h2.1c.129,0,.316-.008.562-.021s.537-.033.873-.06c.362-.026.66-.061.892-.1a2.12,2.12,0,0,0,.622-.2,1.7,1.7,0,0,0,.485-.381,6.6,6.6,0,0,0,.484-.643h.97Zm-5.819-10.164.311-1.406a4.282,4.282,0,0,0,.077-.481c0-.59-.284-.884-.853-.884a.9.9,0,0,0-.737.281,2.887,2.887,0,0,0-.426,1.084l-.311,1.406Z" transform="translate(-51.668 -31.14)" fill="#081fe4"/>
    </g>
    <path id="Path_999" data-name="Path 999" d="M82.34,21.315q.246-.764.472-1.627c.3-1.161.633-2.518.979-4.04q.438-2.074.676-3.316a12.449,12.449,0,0,0,.247-2.3,7.293,7.293,0,0,0-.215-1.85,3.411,3.411,0,0,0-1.218-1.713,4.563,4.563,0,0,0-2.506-.843c-.868-.041-1.95-.061-3.218-.061H72.594c-.937,0-1.7.027-2.27.083a11.122,11.122,0,0,0-1.411.212,7.012,7.012,0,0,0-1.728.613,5.526,5.526,0,0,0-1.372,1.024,7.313,7.313,0,0,0-1.086,1.457,15.306,15.306,0,0,0-.921,1.946,25.531,25.531,0,0,0-.912,2.69q-.458,1.59-.9,3.348c-.369,1.554-.651,2.9-.841,4.007-.022.133-.039.248-.059.372Z" transform="translate(-1.366 -0.124)" fill="#081fe4"/>
    <path id="Path_1000" data-name="Path 1000" d="M81.873,23c-.025.067-.052.141-.078.206a11.234,11.234,0,0,1-1.268,2.354,7.374,7.374,0,0,1-1.7,1.694,5.468,5.468,0,0,1-1.24.686,7.294,7.294,0,0,1-1.338.371,12.612,12.612,0,0,1-1.531.17q-.8.04-1.791.082H68.1q-1.2,0-2.037-.022a10.01,10.01,0,0,1-1.483-.13,5.205,5.205,0,0,1-1.072-.292,4.608,4.608,0,0,1-.844-.454A4.447,4.447,0,0,1,61.385,26.2a4.759,4.759,0,0,1-.519-2.348c0-.238.021-.528.052-.853Z" transform="translate(-1.36 -0.514)" fill="#081fe4"/>
    <path id="Path_1001" data-name="Path 1001" d="M81.644,20.359q.128-.431.249-.9c.3-1.152.628-2.5.969-4,.289-1.367.513-2.467.672-3.291a11.478,11.478,0,0,0,.23-2.119,6.333,6.333,0,0,0-.183-1.6,2.439,2.439,0,0,0-.871-1.19,3.6,3.6,0,0,0-1.953-.638c-.853-.04-1.92-.06-3.172-.06H72.621c-.905,0-1.638.026-2.175.078a10.588,10.588,0,0,0-1.287.192,6.043,6.043,0,0,0-1.492.526,4.552,4.552,0,0,0-1.128.843A6.259,6.259,0,0,0,65.6,9.463a14.266,14.266,0,0,0-.863,1.824,24.76,24.76,0,0,0-.878,2.592q-.453,1.575-.888,3.31c-.281,1.183-.51,2.246-.686,3.17l8.262-.008c.027-.217.069-.455.127-.715l1.509-6.524a4,4,0,0,1,.542-1.588,1.415,1.415,0,0,1,1.205-.543,1.249,1.249,0,0,1,1.283,1.425v.138a3.974,3.974,0,0,1-.1.808l-1.583,7.025Z" transform="translate(-1.391 -0.146)" fill="#fffe37"/>
    <path id="Path_1002" data-name="Path 1002" d="M58.938,21.315c.331-1.2.645-2.375.922-3.478.378-1.507.762-3.271,1.141-5.256q.119-.736.219-1.473a9.568,9.568,0,0,0,.1-1.243A3.984,3.984,0,0,0,60,6.653a5.445,5.445,0,0,0-3.61-1.09H54.642a6.689,6.689,0,0,0-2.123.289,3.557,3.557,0,0,0-1.676,1.36l-.028.037a1.787,1.787,0,0,0-.656-1.2,3.141,3.141,0,0,0-1.947-.487H39.719l-.428,1.97.492.094a1.37,1.37,0,0,1,.632.223.464.464,0,0,1,.083.312,10.787,10.787,0,0,1-.306,1.677l-2.6,11.477Z" transform="translate(-0.84 -0.124)" fill="#081fe4"/>
    <path id="Path_1003" data-name="Path 1003" d="M51.719,7.565c-.4.513-.519.9-1.144.932-.793.039-.688-.8-.688-.8,0-.561-.192-1.134-1.615-1.134H40.535l-.055.249a1.692,1.692,0,0,1,.63.346A1.338,1.338,0,0,1,41.5,8.184a10.124,10.124,0,0,1-.33,1.892l-2.33,10.283h8.263l1.608-7.13a4.121,4.121,0,0,1,.535-1.472,1.329,1.329,0,0,1,1.134-.572,1.227,1.227,0,0,1,1.4,1.259,2.814,2.814,0,0,1-.144.883l-1.575,7.017,8.155.015c.257-.943.5-1.861.719-2.737.374-1.489.753-3.234,1.126-5.187.076-.469.148-.951.213-1.434a8.79,8.79,0,0,0,.095-1.112A3.02,3.02,0,0,0,59.4,7.421a4.52,4.52,0,0,0-2.979-.858H53.988A2.823,2.823,0,0,0,51.719,7.565Z" transform="translate(-0.868 -0.147)" fill="#fffe37"/>
    <path id="Path_1004" data-name="Path 1004" d="M58.532,23l-.015.054a13.58,13.58,0,0,1-1.012,2.595,5.147,5.147,0,0,1-1.493,1.746,5.645,5.645,0,0,1-2.172.914,14.476,14.476,0,0,1-2.9.255h-4.7l-.268,1.125a8.826,8.826,0,0,0-.264,1.671.465.465,0,0,0,.083.314,1.38,1.38,0,0,0,.63.221l.511.1-.5,1.969H37.959c-2.255,0-2.592-1.3-2.592-2.073a5.781,5.781,0,0,1,.128-1.155L37.248,23Z" transform="translate(-0.79 -0.514)" fill="#081fe4"/>
    <path id="Path_1005" data-name="Path 1005" d="M23.692,20.359a1.369,1.369,0,0,1-.091-.569,4.3,4.3,0,0,1,.18-1.237l.268-1.322h7.266a12.779,12.779,0,0,0,1.565-.077,3.462,3.462,0,0,0,.957-.245,1.286,1.286,0,0,0,.536-.428,5.593,5.593,0,0,0,.508-.912,9.663,9.663,0,0,0,.373-1.033q.192-.632.346-1.324t.252-1.381a8.961,8.961,0,0,0,.095-1.21,4.083,4.083,0,0,0-.616-2.288,3.267,3.267,0,0,0-1.718-1.31c-.227-.077-.455-.15-.675-.217a4.812,4.812,0,0,0-.733-.145c-.305-.039-.685-.065-1.144-.077s-1.076-.02-1.812-.02H26.273a14.166,14.166,0,0,0-4.2.525A6.811,6.811,0,0,0,19.4,8.6a7.419,7.419,0,0,0-1.693,2.5,30.416,30.416,0,0,0-1.249,3.635q-.32.941-.609,2.17c-.2.828-.4,1.8-.612,2.9a3.76,3.76,0,0,0-.1.557h8.554m1.469-7.98a3.254,3.254,0,0,1,.539-1.3,1.4,1.4,0,0,1,1.129-.459A1.26,1.26,0,0,1,28.191,12a4.3,4.3,0,0,1-.089.581l-.4,1.816H24.71Z" transform="translate(-0.339 -0.146)" fill="#fffe37"/>
    <path id="Path_1006" data-name="Path 1006" d="M26.963,11.811a.513.513,0,0,0-.448.186,2.115,2.115,0,0,0-.272.74l-.2.962,1.173.021.2-.962a2.85,2.85,0,0,0,.053-.33C27.476,12.023,27.306,11.818,26.963,11.811Z" transform="translate(-0.581 -0.264)" fill="#f9f9fa"/>
    <path id="Path_1007" data-name="Path 1007" d="M34.076,23l-.372,1.65a6.6,6.6,0,0,1-.889,2.1,3.572,3.572,0,0,1-1.449,1.221,6.181,6.181,0,0,1-1.962.487c-.717.069-1.554.106-2.489.106H22.827c-1.57,0-2.932-.022-4.047-.062a6.58,6.58,0,0,1-2.726-.561,4.96,4.96,0,0,1-1.708-1.517,4.383,4.383,0,0,1-.662-2.529c0-.265.019-.57.047-.895Z" transform="translate(-0.306 -0.514)" fill="#081fe4"/>
    <path id="Path_1008" data-name="Path 1008" d="M14.5,2.094C14.5,1.738,14.5,1,12.885,1H5.141l-.059.272a1.858,1.858,0,0,1,.634.364A1.346,1.346,0,0,1,6.11,2.662a9.669,9.669,0,0,1-.33,1.856L2.272,20.235h8.205L14.352,3.051A3.328,3.328,0,0,0,14.5,2.094Z" transform="translate(-0.051 -0.022)" fill="#fffe37"/>
    <path id="Path_1009" data-name="Path 1009" d="M10.9,23l-.292,1.286a10.3,10.3,0,0,0-.211,1.053,5.018,5.018,0,0,0-.056.585.493.493,0,0,0,.1.348,1.256,1.256,0,0,0,.617.228l.507.1-.5,1.967H2.593C.337,28.561,0,27.263,0,26.488a4.747,4.747,0,0,1,.175-1.179l.193-.948L.675,23Z" transform="translate(0 -0.514)" fill="#081fe4"/>
    <g id="Group_1044" data-name="Group 1044" transform="translate(46.975 11.95)">
      <g id="Group_1043" data-name="Group 1043" transform="translate(0 0)">
        <path id="Path_1010" data-name="Path 1010" d="M48.671,21.058a.514.514,0,0,0,.593-.363l1.629-6.932a3.828,3.828,0,0,0,.143-.72c.054-.509-.094-.784-.439-.819-.182-.02-.333.087-.457.32a5.872,5.872,0,0,0-.393,1.264l-1.7,7.219Z" transform="translate(-48.047 -12.223)" fill="#f9f9fa"/>
      </g>
    </g>
    <g id="Group_1046" data-name="Group 1046" transform="translate(69.92 11.95)">
      <g id="Group_1045" data-name="Group 1045" transform="translate(0 0)">
        <path id="Path_1011" data-name="Path 1011" d="M72.142,21.058a.515.515,0,0,0,.593-.363l1.629-6.932a3.907,3.907,0,0,0,.143-.72c.053-.509-.094-.784-.44-.819-.182-.02-.332.087-.456.32a5.871,5.871,0,0,0-.393,1.264l-1.7,7.219Z" transform="translate(-71.518 -12.223)" fill="#f9f9fa"/>
      </g>
    </g>
    <path id="Path_1012" data-name="Path 1012" d="M95.6,21.531l-.607,2.717a9.91,9.91,0,0,0-.307,1.64.487.487,0,0,0,.1.347,1.233,1.233,0,0,0,.617.229l.492.095-.431,1.97H86.97a2.97,2.97,0,0,1-1.9-.495,1.967,1.967,0,0,1-.658-1.618,4.46,4.46,0,0,1,.135-1.141l.193-.946.351-1.559a15.446,15.446,0,0,0,2.379-.391A40.329,40.329,0,0,1,95.6,21.531Z" transform="translate(-1.886 -0.48)" fill="#081fe4"/>
    <path id="Path_1013" data-name="Path 1013" d="M95.86,20.09l.737-3.3c.2-.883.4-1.6.583-2.142a3.214,3.214,0,0,1,.558-1.072,1.321,1.321,0,0,1,.689-.418,5.45,5.45,0,0,1,1.307-.128h1.112a4.579,4.579,0,0,0,2.607-.557,3.492,3.492,0,0,0,1.164-2.179l1.043-4.733h-3.982a8.021,8.021,0,0,0-.91.043,2.062,2.062,0,0,0-1.322.649,4.1,4.1,0,0,0-.511.655l-.387.565c-.06-.794-.511-1.912-2.586-1.912H87.47l-.427,1.97.492.094a1.371,1.371,0,0,1,.632.222.467.467,0,0,1,.083.313,10.783,10.783,0,0,1-.306,1.678L85.4,21.128s1.036-.146,2.16-.354A45.424,45.424,0,0,1,95.86,20.09Z" transform="translate(-1.907 -0.124)" fill="#081fe4"/>
    <path id="Path_1014" data-name="Path 1014" d="M114.3,22.679l-.355,1.571a11.292,11.292,0,0,0-.305,1.639.489.489,0,0,0,.1.347,1.246,1.246,0,0,0,.618.229l.491.094-.427,1.971H105.89c-2.256,0-2.594-1.3-2.594-2.073a4.683,4.683,0,0,1,.177-1.181L104.3,21.6A56.872,56.872,0,0,1,114.3,22.679Z" transform="translate(-2.308 -0.483)" fill="#081fe4"/>
    <path id="Path_1015" data-name="Path 1015" d="M114.616,21.068,117.4,8.778a6.72,6.72,0,0,0,.127-1.184c0-.759-.337-2.031-2.594-2.031h-8.477l-.5,1.972.515.093a1.373,1.373,0,0,1,.631.2.519.519,0,0,1,.079.329,8.9,8.9,0,0,1-.265,1.677l-2.3,10.187A75.149,75.149,0,0,1,114.616,21.068Z" transform="translate(-2.337 -0.124)" fill="#081fe4"/>
    <path id="Path_1016" data-name="Path 1016" d="M116.252,0h-7.017l-.49,2.06a6.055,6.055,0,0,0-.128,1.149c0,.773.336,2.071,2.593,2.071h7.024l.438-2.041c.054-.229.1-.437.128-.634a4.027,4.027,0,0,0,.044-.532C118.844,1.3,118.507,0,116.252,0Z" transform="translate(-2.427)" fill="#081fe4"/>
    <path id="Path_1017" data-name="Path 1017" d="M99.777,7.476a3.3,3.3,0,0,1,.4-.512,1.09,1.09,0,0,1,.74-.365,7.11,7.11,0,0,1,.795-.036h2.766l-.782,3.544a2.7,2.7,0,0,1-.777,1.595,3.665,3.665,0,0,1-2.039.375H99.764a6.426,6.426,0,0,0-1.549.158,2.284,2.284,0,0,0-1.18.719,4.062,4.062,0,0,0-.752,1.4c-.195.57-.4,1.324-.61,2.243l-.58,2.6a45.711,45.711,0,0,0-8.382.794l2.216-9.913a10.3,10.3,0,0,0,.328-1.892,1.342,1.342,0,0,0-.392-1.026,1.7,1.7,0,0,0-.631-.346l.055-.249h7.7c1.423,0,1.615.573,1.615,1.134,0,0-.107.815.688.8S99.38,7.989,99.777,7.476Z" transform="translate(-1.938 -0.146)" fill="#fffe37"/>
    <path id="Path_1018" data-name="Path 1018" d="M113.89,19.989,116.465,8.6a5.693,5.693,0,0,0,.108-.987c0-.341,0-1.053-1.616-1.053h-7.718l-.064.247a1.558,1.558,0,0,1,.648.361,1.4,1.4,0,0,1,.358,1.013,10.018,10.018,0,0,1-.288,1.89l-2.045,9.044A49.107,49.107,0,0,1,113.89,19.989Z" transform="translate(-2.364 -0.146)" fill="#fffe37"/>
    <path id="Path_1019" data-name="Path 1019" d="M116.274,1h-6.245l-.306,1.289a5.159,5.159,0,0,0-.106.942c0,.355,0,1.093,1.615,1.093h6.234l.275-1.278c.05-.212.089-.4.114-.561a2.968,2.968,0,0,0,.034-.391C117.889,1.738,117.889,1,116.274,1Z" transform="translate(-2.449 -0.022)" fill="#fffe37"/>
    <path id="Path_1020" data-name="Path 1020" d="M184.726,18.3c-.688-.377-1.343-.735-1.957-1.055a22.629,22.629,0,0,0-8.861-2.7c-.679-.047-1.555,0-1.856.5a1.634,1.634,0,0,0,.109,1.4,3.43,3.43,0,0,1,.357,1.552,2.109,2.109,0,0,1-.612,2.046c-1.2.942-3.7-.009-6.589-1.114l-.1-.037c-2.159-.824-4.846-1.851-6.052-1.119a1.9,1.9,0,0,0-.768,1.518,2.946,2.946,0,0,1-1.072,2.335c-1,.642-2.466.171-4.9-.61-.562-.18-1.179-.377-1.855-.582-5.095-1.546-6.711-1.523-7.518.111-1.193,2.415-2.967,2.6-8.62.9-4.393-1.318-5.713-.34-7.386.9-.381.283-.773.572-1.213.849a7.083,7.083,0,0,1-3.73.892,13.463,13.463,0,0,1-2.03-.163l-.994,4.457h69.41l1.633-7.331C188.2,20.2,186.382,19.2,184.726,18.3Z" transform="translate(-2.661 -0.326)" fill="#081fe4"/>
    <g id="Group_1047" data-name="Group 1047" transform="translate(117.626 0.313)">
      <path id="Path_1021" data-name="Path 1021" d="M125.34,22.041c.416-.262.789-.539,1.151-.807,1.741-1.288,3.385-2.506,8.248-1.048,5.757,1.728,6.657,1.234,7.463-.4,1.193-2.418,3.644-2.143,8.679-.616.68.206,1.3.406,1.868.588,2.087.669,3.467,1.11,4.074.719.32-.206.526-.738.629-1.626a2.83,2.83,0,0,1,1.234-2.241c1.495-.908,3.908-.1,6.907,1.042l.1.037c2.284.873,4.872,1.861,5.638,1.258.238-.187.319-.6.242-1.217a2.637,2.637,0,0,0-.211-1.095,2.544,2.544,0,0,1-.118-2.416c.444-.74,1.372-1.067,2.76-.975a23.6,23.6,0,0,1,9.248,2.811c.619.323,1.28.684,1.974,1.065,1.586.867,3.325,1.812,5.142,2.622L194.689.321H125.294l-4.98,22.317C121.63,22.833,123.857,22.973,125.34,22.041Z" transform="translate(-120.314 -0.321)" fill="#081fe4"/>
      <path id="Path_1022" data-name="Path 1022" d="M121.534,21.8a5.806,5.806,0,0,0,3.312-.57c.389-.243.735-.5,1.072-.751a7.7,7.7,0,0,1,5.028-1.916,14.451,14.451,0,0,1,4.1.7,19.692,19.692,0,0,0,4.868,1.041c.9,0,1.1-.241,1.438-.934a4.028,4.028,0,0,1,3.96-2.335,21.51,21.51,0,0,1,5.88,1.216c.685.208,1.311.409,1.882.592a14.909,14.909,0,0,0,3.148.819.778.778,0,0,0,.078,0,2.875,2.875,0,0,0,.207-.9,3.748,3.748,0,0,1,1.7-2.964,3.991,3.991,0,0,1,2.1-.534,17.448,17.448,0,0,1,5.663,1.5l.1.039a19.366,19.366,0,0,0,4.577,1.377,2.414,2.414,0,0,0-.021-.3l-.007-.108a2.281,2.281,0,0,0-.084-.63,3.515,3.515,0,0,1-.107-3.4c.436-.725,1.463-1.594,3.663-1.446a24.564,24.564,0,0,1,9.636,2.918c.617.323,1.275.681,1.966,1.06,1.11.608,2.528,1.384,4.006,2.1l3.8-17.049H126.1Z" transform="translate(-120.341 -0.343)" fill="#fffe37"/>
    </g>
    <path id="Path_1023" data-name="Path 1023" d="M34.373,21.315l.423-1.873H32.934l-.146.212a5.715,5.715,0,0,1-.458.6,1.214,1.214,0,0,1-.353.278,1.79,1.79,0,0,1-.5.156c-.226.038-.514.07-.869.095-.338.027-.631.049-.884.06s-.42.021-.547.021H27.039c-1.65,0-2.488-.369-2.488-1.094a3.459,3.459,0,0,1,.15-1l.118-.583h6.468a13.812,13.812,0,0,0,1.69-.084A4.445,4.445,0,0,0,34.2,17.78a2.271,2.271,0,0,0,.933-.75,6.406,6.406,0,0,0,.606-1.082,10.362,10.362,0,0,0,.417-1.15q.2-.667.366-1.4t.266-1.46a9.838,9.838,0,0,0,.1-1.345,5.044,5.044,0,0,0-.776-2.825,4.273,4.273,0,0,0-2.215-1.7q-.364-.123-.714-.23a5.8,5.8,0,0,0-.891-.178q-.5-.063-1.239-.085c-.479-.014-1.094-.02-1.84-.02H26.246a15.155,15.155,0,0,0-4.5.57A7.784,7.784,0,0,0,18.7,7.868a8.4,8.4,0,0,0-1.919,2.821A31.312,31.312,0,0,0,15.5,14.416c-.216.634-.427,1.386-.629,2.237s-.408,1.831-.616,2.924q-.227.981-.355,1.738Z" transform="translate(-0.31 -0.124)" fill="#081fe4"/>
    <path id="Path_1024" data-name="Path 1024" d="M11.221,21.191,15.082,4.2l.189-.931a4.186,4.186,0,0,0,.179-1.2C15.449,1.3,15.112,0,12.857,0H4.325L3.9,1.941l.456.117a1.61,1.61,0,0,1,.66.268A.463.463,0,0,1,5.1,2.64,10.136,10.136,0,0,1,4.8,4.277L.988,21.191Z" transform="translate(-0.022)" fill="#081fe4"/>
    <g id="Group_1048" data-name="Group 1048" transform="translate(47.984 30.324)">
      <path id="Path_1025" data-name="Path 1025" d="M71.036,56.368a5.665,5.665,0,0,1,.116-1.045l2.638-11.73a1.234,1.234,0,0,0,.038-.283V43.03c0-.588-.271-.884-.814-.884a.885.885,0,0,0-.718.363,3.185,3.185,0,0,0-.485,1.285L69.523,54.079a10.868,10.868,0,0,0-.213,1.084,5.559,5.559,0,0,0-.059.643.993.993,0,0,0,.214.682,1.5,1.5,0,0,0,.834.363l-.233,1.084H62.114q-2.056,0-2.056-1.567a5.592,5.592,0,0,1,.117-1.045L62.658,44.2q.116-.562.174-.8a1.784,1.784,0,0,0,.059-.4.751.751,0,0,0-.854-.844.857.857,0,0,0-.756.363,4.351,4.351,0,0,0-.485,1.365l-2.289,10.2a10.6,10.6,0,0,0-.213,1.084,5.5,5.5,0,0,0-.058.643.941.941,0,0,0,.233.682,1.622,1.622,0,0,0,.853.363l-.271,1.084H51.137q-2.056,0-2.056-1.567a5.224,5.224,0,0,1,.116-1.045L52.533,40.38a11.722,11.722,0,0,0,.311-1.768.871.871,0,0,0-.234-.663,1.759,1.759,0,0,0-.853-.342l.233-1.084h7.952Q62,36.523,62,38.088a2.258,2.258,0,0,1-.058.524c-.039.16-.123.547-.252,1.164l1.745-2.29a4.647,4.647,0,0,1,.408-.5,1.33,1.33,0,0,1,.388-.283,1.769,1.769,0,0,1,.5-.14,5.436,5.436,0,0,1,.718-.04H69.1a5.977,5.977,0,0,1,2.91.5,1.97,1.97,0,0,1,.814,1.827c0,.08-.007.208-.02.381a2.871,2.871,0,0,1-.1.543l1.629-2.29a2.427,2.427,0,0,1,.853-.764,3.261,3.261,0,0,1,1.319-.2h3.53a6.219,6.219,0,0,1,2.89.481,1.787,1.787,0,0,1,.833,1.688,9.286,9.286,0,0,1-.077.983A11.009,11.009,0,0,1,83.41,41.1L80.5,54.079a10.912,10.912,0,0,0-.214,1.084,5.727,5.727,0,0,0-.058.643,1,1,0,0,0,.213.682,1.56,1.56,0,0,0,.873.363l-.272,1.084H73.092Q71.035,57.936,71.036,56.368Z" transform="translate(-49.081 -31.14)" fill="#081fe4"/>
      <path id="Path_1026" data-name="Path 1026" d="M97.737,57.936h-.97q-2.056,0-2.055-1.567a5.519,5.519,0,0,1,.115-1.005,2.808,2.808,0,0,0,.078-.321c.025-.134.064-.294.116-.483l-1.591,2.131a3.3,3.3,0,0,1-.639.641,2.641,2.641,0,0,1-.8.382,5.091,5.091,0,0,1-1.145.181q-.678.041-1.726.04a10.7,10.7,0,0,1-1.765-.141,4.432,4.432,0,0,1-1.494-.522,2.8,2.8,0,0,1-1.047-1.065,3.468,3.468,0,0,1-.388-1.729,12.332,12.332,0,0,1,.155-1.827q.155-1.025.407-2.049t.562-1.968a9.8,9.8,0,0,1,.66-1.587A7.017,7.017,0,0,1,87.245,45.5,4.514,4.514,0,0,1,88.564,44.5a6,6,0,0,1,1.726-.543,14.528,14.528,0,0,1,2.327-.16h3.3q1.783,0,1.784-1.124a.729.729,0,0,0-.329-.7,2.455,2.455,0,0,0-1.1-.181H92.112a2.779,2.779,0,0,1-1.707-.382A1.607,1.607,0,0,1,89.94,40.1a4.291,4.291,0,0,1,.078-.844l.62-2.731h11.869a4.838,4.838,0,0,1,3.3,1.024,3.68,3.68,0,0,1,1.164,2.913,8.965,8.965,0,0,1-.273,1.969l-2.6,11.65q-.154.644-.213,1.084a5.342,5.342,0,0,0-.059.643.98.98,0,0,0,.213.7,1.608,1.608,0,0,0,.835.342l-.233,1.084Zm-2.211-10.2q-.968,0-1.241,1.164l-.31,1.446a4.027,4.027,0,0,0-.116.542,3.142,3.142,0,0,0-.039.462.738.738,0,0,0,.251.583.989.989,0,0,0,.679.221h.814l.97-4.418Z" transform="translate(-49.871 -31.14)" fill="#081fe4"/>
      <path id="Path_1027" data-name="Path 1027" d="M111.386,57.936h-.933a2.474,2.474,0,0,1-1.552-.381,1.5,1.5,0,0,1-.464-1.226,3.988,3.988,0,0,1,.115-1.005l.194-.964,3.1-13.979a11.779,11.779,0,0,0,.312-1.768.872.872,0,0,0-.235-.663,1.754,1.754,0,0,0-.853-.342l.234-1.084h7.913q2.056,0,2.057,1.605a3.38,3.38,0,0,1-.06.543q-.059.343-.253,1.266l1.553-2.29a3.792,3.792,0,0,1,.447-.582,1.728,1.728,0,0,1,.446-.342,1.647,1.647,0,0,1,.563-.16,7.18,7.18,0,0,1,.833-.04h3.3l-.892,4.1a3.048,3.048,0,0,1-.951,1.867,4.046,4.046,0,0,1-2.269.462H122.9a5.706,5.706,0,0,0-1.4.142,1.769,1.769,0,0,0-.912.561,3.659,3.659,0,0,0-.64,1.226c-.18.537-.374,1.258-.581,2.169l-1.552,7.03a11.041,11.041,0,0,0-.31,1.728.944.944,0,0,0,.232.682,1.63,1.63,0,0,0,.853.363l-.232,1.084Z" transform="translate(-50.407 -31.14)" fill="#081fe4"/>
      <path id="Path_1028" data-name="Path 1028" d="M126.886,56.245a4.325,4.325,0,0,1,.154-1.045l3.336-14.943a9.712,9.712,0,0,0,.273-1.768.918.918,0,0,0-.214-.663,1.681,1.681,0,0,0-.873-.342l.272-1.084h7.914q2.053,0,2.055,1.525a6.287,6.287,0,0,1-.116,1.085l-3.336,14.945a12.265,12.265,0,0,0-.312,1.728.941.941,0,0,0,.235.682,1.618,1.618,0,0,0,.852.363l-.233,1.084h-7.951Q126.885,57.813,126.886,56.245ZM140.5,35.275h-6.478q-2.056,0-2.056-1.567a5.572,5.572,0,0,1,.116-1.044l.388-1.646h6.478q2.055,0,2.056,1.566a3.245,3.245,0,0,1-.039.461c-.026.174-.065.369-.116.583Z" transform="translate(-50.819 -31.017)" fill="#081fe4"/>
      <path id="Path_1029" data-name="Path 1029" d="M153.992,44.2q.116-.562.173-.8a1.785,1.785,0,0,0,.059-.4.751.751,0,0,0-.854-.844.858.858,0,0,0-.756.363,4.276,4.276,0,0,0-.485,1.365l-2.29,10.2a10.831,10.831,0,0,0-.212,1.084,5.556,5.556,0,0,0-.059.643.944.944,0,0,0,.232.682,1.637,1.637,0,0,0,.853.363l-.27,1.084H142.47q-2.055,0-2.056-1.567a5.229,5.229,0,0,1,.117-1.045l3.336-14.943a11.8,11.8,0,0,0,.31-1.768.875.875,0,0,0-.233-.663,1.763,1.763,0,0,0-.853-.342l.232-1.084h7.953q2.055,0,2.055,1.565a2.259,2.259,0,0,1-.058.524c-.039.16-.122.547-.251,1.164l1.744-2.29a5.044,5.044,0,0,1,.407-.5,1.339,1.339,0,0,1,.39-.283,1.763,1.763,0,0,1,.5-.14,5.457,5.457,0,0,1,.718-.04h3.647a5.967,5.967,0,0,1,2.91.5,1.968,1.968,0,0,1,.815,1.827,14.865,14.865,0,0,1-.388,2.209l-2.909,13.017a10.359,10.359,0,0,0-.214,1.084,5.614,5.614,0,0,0-.06.643.989.989,0,0,0,.214.7,1.615,1.615,0,0,0,.834.342l-.233,1.084h-7.951q-2.056,0-2.056-1.567a5.583,5.583,0,0,1,.116-1.045Z" transform="translate(-51.122 -31.14)" fill="#081fe4"/>
      <path id="Path_1030" data-name="Path 1030" d="M183.474,54.44a6.033,6.033,0,0,1-.8,1.909,3.012,3.012,0,0,1-1.222,1.045,5.49,5.49,0,0,1-1.765.441q-1.028.1-2.385.1h-4q-2.327,0-3.937-.061a5.954,5.954,0,0,1-2.464-.5,4.329,4.329,0,0,1-1.493-1.346,3.885,3.885,0,0,1-.562-2.228,12.034,12.034,0,0,1,.116-1.528q.116-.881.427-2.25.309-1.645.6-2.892t.6-2.169a30.747,30.747,0,0,1,1.241-3.656,7.8,7.8,0,0,1,1.765-2.632,7.081,7.081,0,0,1,2.793-1.605,14.056,14.056,0,0,1,4.247-.543h2.91q1.085,0,1.784.019c.465.016.853.04,1.164.08a4.958,4.958,0,0,1,.795.162c.219.067.446.14.678.22a3.7,3.7,0,0,1,1.92,1.488,4.538,4.538,0,0,1,.68,2.529,9.508,9.508,0,0,1-.1,1.266c-.066.47-.15.938-.253,1.406s-.219.918-.348,1.346a9.865,9.865,0,0,1-.388,1.084,6,6,0,0,1-.543.985,1.749,1.749,0,0,1-.719.583,3.833,3.833,0,0,1-1.067.281,12.775,12.775,0,0,1-1.591.08h-6.711l-.194.964a3.787,3.787,0,0,0-.154,1.085q0,1.566,2.908,1.567h2.1c.129,0,.316-.008.562-.021s.537-.033.873-.06c.362-.026.66-.061.892-.1a2.12,2.12,0,0,0,.622-.2,1.7,1.7,0,0,0,.485-.381,6.6,6.6,0,0,0,.484-.643h.97Zm-5.819-10.164.311-1.406a4.282,4.282,0,0,0,.077-.481c0-.59-.284-.884-.853-.884a.9.9,0,0,0-.737.281,2.887,2.887,0,0,0-.426,1.084l-.311,1.406Z" transform="translate(-51.668 -31.14)" fill="#081fe4"/>
    </g>
    <path id="Path_1031" data-name="Path 1031" d="M82.34,21.315q.246-.764.472-1.627c.3-1.161.633-2.518.979-4.04q.438-2.074.676-3.316a12.449,12.449,0,0,0,.247-2.3,7.293,7.293,0,0,0-.215-1.85,3.411,3.411,0,0,0-1.218-1.713,4.563,4.563,0,0,0-2.506-.843c-.868-.041-1.95-.061-3.218-.061H72.594c-.937,0-1.7.027-2.27.083a11.122,11.122,0,0,0-1.411.212,7.012,7.012,0,0,0-1.728.613,5.526,5.526,0,0,0-1.372,1.024,7.313,7.313,0,0,0-1.086,1.457,15.306,15.306,0,0,0-.921,1.946,25.531,25.531,0,0,0-.912,2.69q-.458,1.59-.9,3.348c-.369,1.554-.651,2.9-.841,4.007-.022.133-.039.248-.059.372Z" transform="translate(-1.366 -0.124)" fill="#081fe4"/>
    <path id="Path_1032" data-name="Path 1032" d="M81.873,23c-.025.067-.052.141-.078.206a11.234,11.234,0,0,1-1.268,2.354,7.374,7.374,0,0,1-1.7,1.694,5.468,5.468,0,0,1-1.24.686,7.294,7.294,0,0,1-1.338.371,12.612,12.612,0,0,1-1.531.17q-.8.04-1.791.082H68.1q-1.2,0-2.037-.022a10.01,10.01,0,0,1-1.483-.13,5.205,5.205,0,0,1-1.072-.292,4.608,4.608,0,0,1-.844-.454A4.447,4.447,0,0,1,61.385,26.2a4.759,4.759,0,0,1-.519-2.348c0-.238.021-.528.052-.853Z" transform="translate(-1.36 -0.514)" fill="#081fe4"/>
    <path id="Path_1033" data-name="Path 1033" d="M81.644,20.359q.128-.431.249-.9c.3-1.152.628-2.5.969-4,.289-1.367.513-2.467.672-3.291a11.478,11.478,0,0,0,.23-2.119,6.333,6.333,0,0,0-.183-1.6,2.439,2.439,0,0,0-.871-1.19,3.6,3.6,0,0,0-1.953-.638c-.853-.04-1.92-.06-3.172-.06H72.621c-.905,0-1.638.026-2.175.078a10.588,10.588,0,0,0-1.287.192,6.043,6.043,0,0,0-1.492.526,4.552,4.552,0,0,0-1.128.843A6.259,6.259,0,0,0,65.6,9.463a14.266,14.266,0,0,0-.863,1.824,24.76,24.76,0,0,0-.878,2.592q-.453,1.575-.888,3.31c-.281,1.183-.51,2.246-.686,3.17l8.262-.008c.027-.217.069-.455.127-.715l1.509-6.524a4,4,0,0,1,.542-1.588,1.415,1.415,0,0,1,1.205-.543,1.249,1.249,0,0,1,1.283,1.425v.138a3.974,3.974,0,0,1-.1.808l-1.583,7.025Z" transform="translate(-1.391 -0.146)" fill="#fffe37"/>
    <path id="Path_1034" data-name="Path 1034" d="M58.938,21.315c.331-1.2.645-2.375.922-3.478.378-1.507.762-3.271,1.141-5.256q.119-.736.219-1.473a9.568,9.568,0,0,0,.1-1.243A3.984,3.984,0,0,0,60,6.653a5.445,5.445,0,0,0-3.61-1.09H54.642a6.689,6.689,0,0,0-2.123.289,3.557,3.557,0,0,0-1.676,1.36l-.028.037a1.787,1.787,0,0,0-.656-1.2,3.141,3.141,0,0,0-1.947-.487H39.719l-.428,1.97.492.094a1.37,1.37,0,0,1,.632.223.464.464,0,0,1,.083.312,10.787,10.787,0,0,1-.306,1.677l-2.6,11.477Z" transform="translate(-0.84 -0.124)" fill="#081fe4"/>
    <path id="Path_1035" data-name="Path 1035" d="M51.719,7.565c-.4.513-.519.9-1.144.932-.793.039-.688-.8-.688-.8,0-.561-.192-1.134-1.615-1.134H40.535l-.055.249a1.692,1.692,0,0,1,.63.346A1.338,1.338,0,0,1,41.5,8.184a10.124,10.124,0,0,1-.33,1.892l-2.33,10.283h8.263l1.608-7.13a4.121,4.121,0,0,1,.535-1.472,1.329,1.329,0,0,1,1.134-.572,1.227,1.227,0,0,1,1.4,1.259,2.814,2.814,0,0,1-.144.883l-1.575,7.017,8.155.015c.257-.943.5-1.861.719-2.737.374-1.489.753-3.234,1.126-5.187.076-.469.148-.951.213-1.434a8.79,8.79,0,0,0,.095-1.112A3.02,3.02,0,0,0,59.4,7.421a4.52,4.52,0,0,0-2.979-.858H53.988A2.823,2.823,0,0,0,51.719,7.565Z" transform="translate(-0.868 -0.147)" fill="#fffe37"/>
    <path id="Path_1036" data-name="Path 1036" d="M58.532,23l-.015.054a13.58,13.58,0,0,1-1.012,2.595,5.147,5.147,0,0,1-1.493,1.746,5.645,5.645,0,0,1-2.172.914,14.476,14.476,0,0,1-2.9.255h-4.7l-.268,1.125a8.826,8.826,0,0,0-.264,1.671.465.465,0,0,0,.083.314,1.38,1.38,0,0,0,.63.221l.511.1-.5,1.969H37.959c-2.255,0-2.592-1.3-2.592-2.073a5.781,5.781,0,0,1,.128-1.155L37.248,23Z" transform="translate(-0.79 -0.514)" fill="#081fe4"/>
    <path id="Path_1037" data-name="Path 1037" d="M23.692,20.359a1.369,1.369,0,0,1-.091-.569,4.3,4.3,0,0,1,.18-1.237l.268-1.322h7.266a12.779,12.779,0,0,0,1.565-.077,3.462,3.462,0,0,0,.957-.245,1.286,1.286,0,0,0,.536-.428,5.593,5.593,0,0,0,.508-.912,9.663,9.663,0,0,0,.373-1.033q.192-.632.346-1.324t.252-1.381a8.961,8.961,0,0,0,.095-1.21,4.083,4.083,0,0,0-.616-2.288,3.267,3.267,0,0,0-1.718-1.31c-.227-.077-.455-.15-.675-.217a4.812,4.812,0,0,0-.733-.145c-.305-.039-.685-.065-1.144-.077s-1.076-.02-1.812-.02H26.273a14.166,14.166,0,0,0-4.2.525A6.811,6.811,0,0,0,19.4,8.6a7.419,7.419,0,0,0-1.693,2.5,30.416,30.416,0,0,0-1.249,3.635q-.32.941-.609,2.17c-.2.828-.4,1.8-.612,2.9a3.76,3.76,0,0,0-.1.557h8.554m1.469-7.98a3.254,3.254,0,0,1,.539-1.3,1.4,1.4,0,0,1,1.129-.459A1.26,1.26,0,0,1,28.191,12a4.3,4.3,0,0,1-.089.581l-.4,1.816H24.71Z" transform="translate(-0.339 -0.146)" fill="#fffe37"/>
    <path id="Path_1038" data-name="Path 1038" d="M26.963,11.811a.513.513,0,0,0-.448.186,2.115,2.115,0,0,0-.272.74l-.2.962,1.173.021.2-.962a2.85,2.85,0,0,0,.053-.33C27.476,12.023,27.306,11.818,26.963,11.811Z" transform="translate(-0.581 -0.264)" fill="#f9f9fa"/>
    <path id="Path_1039" data-name="Path 1039" d="M34.076,23l-.372,1.65a6.6,6.6,0,0,1-.889,2.1,3.572,3.572,0,0,1-1.449,1.221,6.181,6.181,0,0,1-1.962.487c-.717.069-1.554.106-2.489.106H22.827c-1.57,0-2.932-.022-4.047-.062a6.58,6.58,0,0,1-2.726-.561,4.96,4.96,0,0,1-1.708-1.517,4.383,4.383,0,0,1-.662-2.529c0-.265.019-.57.047-.895Z" transform="translate(-0.306 -0.514)" fill="#081fe4"/>
    <path id="Path_1040" data-name="Path 1040" d="M14.5,2.094C14.5,1.738,14.5,1,12.885,1H5.141l-.059.272a1.858,1.858,0,0,1,.634.364A1.346,1.346,0,0,1,6.11,2.662a9.669,9.669,0,0,1-.33,1.856L2.272,20.235h8.205L14.352,3.051A3.328,3.328,0,0,0,14.5,2.094Z" transform="translate(-0.051 -0.022)" fill="#fffe37"/>
    <path id="Path_1041" data-name="Path 1041" d="M10.9,23l-.292,1.286a10.3,10.3,0,0,0-.211,1.053,5.018,5.018,0,0,0-.056.585.493.493,0,0,0,.1.348,1.256,1.256,0,0,0,.617.228l.507.1-.5,1.967H2.593C.337,28.561,0,27.263,0,26.488a4.747,4.747,0,0,1,.175-1.179l.193-.948L.675,23Z" transform="translate(0 -0.514)" fill="#081fe4"/>
    <g id="Group_1050" data-name="Group 1050" transform="translate(46.975 11.95)">
      <g id="Group_1049" data-name="Group 1049" transform="translate(0 0)">
        <path id="Path_1042" data-name="Path 1042" d="M48.671,21.058a.514.514,0,0,0,.593-.363l1.629-6.932a3.828,3.828,0,0,0,.143-.72c.054-.509-.094-.784-.439-.819-.182-.02-.333.087-.457.32a5.872,5.872,0,0,0-.393,1.264l-1.7,7.219Z" transform="translate(-48.047 -12.223)" fill="#f9f9fa"/>
      </g>
    </g>
    <g id="Group_1052" data-name="Group 1052" transform="translate(69.92 11.95)">
      <g id="Group_1051" data-name="Group 1051" transform="translate(0 0)">
        <path id="Path_1043" data-name="Path 1043" d="M72.142,21.058a.515.515,0,0,0,.593-.363l1.629-6.932a3.907,3.907,0,0,0,.143-.72c.053-.509-.094-.784-.44-.819-.182-.02-.332.087-.456.32a5.871,5.871,0,0,0-.393,1.264l-1.7,7.219Z" transform="translate(-71.518 -12.223)" fill="#f9f9fa"/>
      </g>
    </g>
    <path id="Path_1044" data-name="Path 1044" d="M95.6,21.531l-.607,2.717a9.91,9.91,0,0,0-.307,1.64.487.487,0,0,0,.1.347,1.233,1.233,0,0,0,.617.229l.492.095-.431,1.97H86.97a2.97,2.97,0,0,1-1.9-.495,1.967,1.967,0,0,1-.658-1.618,4.46,4.46,0,0,1,.135-1.141l.193-.946.351-1.559a15.446,15.446,0,0,0,2.379-.391A40.329,40.329,0,0,1,95.6,21.531Z" transform="translate(-1.886 -0.48)" fill="#081fe4"/>
    <path id="Path_1045" data-name="Path 1045" d="M95.86,20.09l.737-3.3c.2-.883.4-1.6.583-2.142a3.214,3.214,0,0,1,.558-1.072,1.321,1.321,0,0,1,.689-.418,5.45,5.45,0,0,1,1.307-.128h1.112a4.579,4.579,0,0,0,2.607-.557,3.492,3.492,0,0,0,1.164-2.179l1.043-4.733h-3.982a8.021,8.021,0,0,0-.91.043,2.062,2.062,0,0,0-1.322.649,4.1,4.1,0,0,0-.511.655l-.387.565c-.06-.794-.511-1.912-2.586-1.912H87.47l-.427,1.97.492.094a1.371,1.371,0,0,1,.632.222.467.467,0,0,1,.083.313,10.783,10.783,0,0,1-.306,1.678L85.4,21.128s1.036-.146,2.16-.354A45.424,45.424,0,0,1,95.86,20.09Z" transform="translate(-1.907 -0.124)" fill="#081fe4"/>
    <path id="Path_1046" data-name="Path 1046" d="M114.3,22.679l-.355,1.571a11.292,11.292,0,0,0-.305,1.639.489.489,0,0,0,.1.347,1.246,1.246,0,0,0,.618.229l.491.094-.427,1.971H105.89c-2.256,0-2.594-1.3-2.594-2.073a4.683,4.683,0,0,1,.177-1.181L104.3,21.6A56.872,56.872,0,0,1,114.3,22.679Z" transform="translate(-2.308 -0.483)" fill="#081fe4"/>
    <path id="Path_1047" data-name="Path 1047" d="M114.616,21.068,117.4,8.778a6.72,6.72,0,0,0,.127-1.184c0-.759-.337-2.031-2.594-2.031h-8.477l-.5,1.972.515.093a1.373,1.373,0,0,1,.631.2.519.519,0,0,1,.079.329,8.9,8.9,0,0,1-.265,1.677l-2.3,10.187A75.149,75.149,0,0,1,114.616,21.068Z" transform="translate(-2.337 -0.124)" fill="#081fe4"/>
    <path id="Path_1048" data-name="Path 1048" d="M116.252,0h-7.017l-.49,2.06a6.055,6.055,0,0,0-.128,1.149c0,.773.336,2.071,2.593,2.071h7.024l.438-2.041c.054-.229.1-.437.128-.634a4.027,4.027,0,0,0,.044-.532C118.844,1.3,118.507,0,116.252,0Z" transform="translate(-2.427)" fill="#081fe4"/>
    <path id="Path_1049" data-name="Path 1049" d="M99.777,7.476a3.3,3.3,0,0,1,.4-.512,1.09,1.09,0,0,1,.74-.365,7.11,7.11,0,0,1,.795-.036h2.766l-.782,3.544a2.7,2.7,0,0,1-.777,1.595,3.665,3.665,0,0,1-2.039.375H99.764a6.426,6.426,0,0,0-1.549.158,2.284,2.284,0,0,0-1.18.719,4.062,4.062,0,0,0-.752,1.4c-.195.57-.4,1.324-.61,2.243l-.58,2.6a45.711,45.711,0,0,0-8.382.794l2.216-9.913a10.3,10.3,0,0,0,.328-1.892,1.342,1.342,0,0,0-.392-1.026,1.7,1.7,0,0,0-.631-.346l.055-.249h7.7c1.423,0,1.615.573,1.615,1.134,0,0-.107.815.688.8S99.38,7.989,99.777,7.476Z" transform="translate(-1.938 -0.146)" fill="#fffe37"/>
    <path id="Path_1050" data-name="Path 1050" d="M113.89,19.989,116.465,8.6a5.693,5.693,0,0,0,.108-.987c0-.341,0-1.053-1.616-1.053h-7.718l-.064.247a1.558,1.558,0,0,1,.648.361,1.4,1.4,0,0,1,.358,1.013,10.018,10.018,0,0,1-.288,1.89l-2.045,9.044A49.107,49.107,0,0,1,113.89,19.989Z" transform="translate(-2.364 -0.146)" fill="#fffe37"/>
    <path id="Path_1051" data-name="Path 1051" d="M116.274,1h-6.245l-.306,1.289a5.159,5.159,0,0,0-.106.942c0,.355,0,1.093,1.615,1.093h6.234l.275-1.278c.05-.212.089-.4.114-.561a2.968,2.968,0,0,0,.034-.391C117.889,1.738,117.889,1,116.274,1Z" transform="translate(-2.449 -0.022)" fill="#fffe37"/>
    <path id="Path_1052" data-name="Path 1052" d="M184.726,18.3c-.688-.377-1.343-.735-1.957-1.055a22.629,22.629,0,0,0-8.861-2.7c-.679-.047-1.555,0-1.856.5a1.634,1.634,0,0,0,.109,1.4,3.43,3.43,0,0,1,.357,1.552,2.109,2.109,0,0,1-.612,2.046c-1.2.942-3.7-.009-6.589-1.114l-.1-.037c-2.159-.824-4.846-1.851-6.052-1.119a1.9,1.9,0,0,0-.768,1.518,2.946,2.946,0,0,1-1.072,2.335c-1,.642-2.466.171-4.9-.61-.562-.18-1.179-.377-1.855-.582-5.095-1.546-6.711-1.523-7.518.111-1.193,2.415-2.967,2.6-8.62.9-4.393-1.318-5.713-.34-7.386.9-.381.283-.773.572-1.213.849a7.083,7.083,0,0,1-3.73.892,13.463,13.463,0,0,1-2.03-.163l-.994,4.457h69.41l1.633-7.331C188.2,20.2,186.382,19.2,184.726,18.3Z" transform="translate(-2.661 -0.326)" fill="#081fe4"/>
  </g>
</svg>
