<svg xmlns="http://www.w3.org/2000/svg" width="39" height="39" viewBox="0 0 39 39">
  <g id="twitter-icon" transform="translate(-1079 -296)">
    <g id="Ellipse_6" data-name="Ellipse 6" transform="translate(1079 296)" fill="none" stroke="#081fe4" stroke-width="1">
      <circle cx="19.5" cy="19.5" r="19.5" stroke="none"/>
      <circle cx="19.5" cy="19.5" r="19" fill="none"/>
    </g>
    <path id="Icon_awesome-twitter" data-name="Icon awesome-twitter" d="M18.841,7.631c.013.187.013.373.013.56A12.162,12.162,0,0,1,6.609,20.437,12.163,12.163,0,0,1,0,18.5a8.9,8.9,0,0,0,1.039.053,8.62,8.62,0,0,0,5.343-1.839,4.312,4.312,0,0,1-4.024-2.985,5.428,5.428,0,0,0,.813.067A4.552,4.552,0,0,0,4.3,13.654,4.3,4.3,0,0,1,.853,9.43V9.377A4.335,4.335,0,0,0,2.8,9.923,4.31,4.31,0,0,1,1.466,4.167a12.234,12.234,0,0,0,8.874,4.5,4.859,4.859,0,0,1-.107-.986A4.308,4.308,0,0,1,17.682,4.74,8.474,8.474,0,0,0,20.414,3.7a4.292,4.292,0,0,1-1.892,2.372A8.628,8.628,0,0,0,21,5.406a9.252,9.252,0,0,1-2.159,2.225Z" transform="translate(1088 303.619)" fill="#081fe4"/>
  </g>
</svg>
