<svg xmlns="http://www.w3.org/2000/svg" width="18" height="21" viewBox="0 0 18 21">
  <path id="Icon_metro-file-pdf" data-name="Icon metro-file-pdf" d="M19.774,6.657a2.727,2.727,0,0,1,.563.891,2.7,2.7,0,0,1,.234,1.031v13.5A1.12,1.12,0,0,1,19.446,23.2H3.7a1.12,1.12,0,0,1-1.125-1.125V3.328A1.12,1.12,0,0,1,3.7,2.2H14.2a2.705,2.705,0,0,1,1.031.234A2.727,2.727,0,0,1,16.118,3ZM14.571,3.8V8.2h4.406a1.28,1.28,0,0,0-.258-.48L15.051,4.055a1.28,1.28,0,0,0-.48-.258Zm4.5,17.906V9.7H14.2a1.12,1.12,0,0,1-1.125-1.125V3.7h-9v18h15Zm-6.023-6.949a8.916,8.916,0,0,0,.984.656,11.629,11.629,0,0,1,1.371-.082q1.723,0,2.074.574a.566.566,0,0,1,.023.609.034.034,0,0,1-.012.023l-.023.023v.012q-.07.445-.832.445a4.834,4.834,0,0,1-1.348-.234,8.545,8.545,0,0,1-1.523-.621,21.1,21.1,0,0,0-4.594.973Q7.375,20.2,6.332,20.2A.682.682,0,0,1,6,20.121l-.281-.141q-.012-.012-.07-.059a.484.484,0,0,1-.07-.422,2.545,2.545,0,0,1,.656-1.072A5.663,5.663,0,0,1,7.786,17.3a.171.171,0,0,1,.27.07.068.068,0,0,1,.023.047q.609-1,1.254-2.309a17.886,17.886,0,0,0,1.219-3.07,9.473,9.473,0,0,1-.357-1.869,4.556,4.556,0,0,1,.076-1.494q.129-.469.492-.469h.258a.494.494,0,0,1,.41.176.936.936,0,0,1,.105.8.254.254,0,0,1-.047.094.3.3,0,0,1,.012.094v.352a15.346,15.346,0,0,1-.164,2.25,5.929,5.929,0,0,0,1.711,2.789ZM6.3,19.571A5.174,5.174,0,0,0,7.9,17.719a6.68,6.68,0,0,0-1.025.984A3.9,3.9,0,0,0,6.3,19.571ZM10.961,8.789a3.485,3.485,0,0,0-.023,1.547q.012-.082.082-.516,0-.035.082-.5a.264.264,0,0,1,.047-.094.034.034,0,0,1-.012-.023.024.024,0,0,0-.006-.018.024.024,0,0,1-.006-.018.674.674,0,0,0-.152-.422.034.034,0,0,1-.012.023v.023ZM9.508,16.536a17.189,17.189,0,0,1,3.328-.949,1.767,1.767,0,0,1-.152-.111,2.1,2.1,0,0,1-.188-.158,6.207,6.207,0,0,1-1.488-2.062,15.66,15.66,0,0,1-.973,2.309q-.352.656-.527.973Zm7.57-.188a2.8,2.8,0,0,0-1.641-.281,4.433,4.433,0,0,0,1.453.328,1.137,1.137,0,0,0,.211-.012q0-.012-.023-.035Z" transform="translate(-2.571 -2.203)" fill="#081fe4"/>
</svg>
