<?xml version="1.0" encoding="utf-8"?>
<!-- Generator: Adobe Illustrator 22.0.1, SVG Export Plug-In . SVG Version: 6.00 Build 0)  -->
<svg version="1.1" id="Calque_1" xmlns="http://www.w3.org/2000/svg" xmlns:xlink="http://www.w3.org/1999/xlink" width="18" height="21" x="0px" y="0px"
	 viewBox="0 0 18 21" style="enable-background:new 0 0 18 21;" xml:space="preserve">
<style type="text/css">
	.st0{fill:#FFFFFF;}
</style>
<path id="Icon_metro-file-pdf" class="st0" d="M17.2,4.5c0.2,0.3,0.4,0.6,0.6,0.9C17.9,5.7,18,6,18,6.4v13.5c0,0.6-0.5,1.1-1.1,1.1
	c0,0,0,0,0,0H1.1C0.5,21,0,20.5,0,19.9c0,0,0,0,0,0V1.1C0,0.5,0.5,0,1.1,0c0,0,0,0,0,0h10.5c0.4,0,0.7,0.1,1,0.2
	c0.3,0.1,0.6,0.3,0.9,0.6L17.2,4.5z M12,1.6V6h4.4c-0.1-0.2-0.1-0.3-0.3-0.5l-3.7-3.7C12.3,1.7,12.2,1.6,12,1.6L12,1.6z M16.5,19.5
	v-12h-4.9c-0.6,0-1.1-0.5-1.1-1.1c0,0,0,0,0,0V1.5h-9v18L16.5,19.5L16.5,19.5z M10.5,12.6c0.3,0.2,0.6,0.5,1,0.7
	c0.5-0.1,0.9-0.1,1.4-0.1c1.1,0,1.8,0.2,2.1,0.6c0.1,0.2,0.1,0.4,0,0.6c0,0,0,0,0,0l0,0v0c0,0.3-0.3,0.4-0.8,0.4
	c-0.5,0-0.9-0.1-1.3-0.2c-0.5-0.2-1-0.4-1.5-0.6c-1.6,0.2-3.1,0.5-4.6,1C5.4,17,4.5,18,3.8,18c-0.1,0-0.2,0-0.3-0.1l-0.3-0.1
	c0,0,0,0-0.1-0.1C3,17.6,3,17.4,3,17.3c0.1-0.4,0.4-0.8,0.7-1.1c0.4-0.5,1-0.8,1.6-1.1c0.1-0.1,0.2-0.1,0.2,0c0,0,0,0,0,0
	c0,0,0,0,0,0c0.4-0.7,0.8-1.4,1.3-2.3c0.5-1,0.9-2,1.2-3.1C7.8,9.2,7.7,8.6,7.6,8c-0.1-0.5,0-1,0.1-1.5C7.8,6.2,7.9,6,8.2,6h0.3
	c0.2,0,0.3,0.1,0.4,0.2C9,6.4,9.1,6.7,9,7c0,0,0,0.1,0,0.1c0,0,0,0.1,0,0.1v0.4c0,0.8-0.1,1.5-0.2,2.2C9.1,10.8,9.7,11.8,10.5,12.6
	L10.5,12.6z M3.7,17.4c0.7-0.5,1.2-1.1,1.6-1.9c-0.4,0.3-0.7,0.6-1,1C4.1,16.8,3.9,17.1,3.7,17.4z M8.4,6.6c-0.1,0.5-0.1,1,0,1.5
	c0-0.1,0-0.2,0.1-0.5c0,0,0-0.2,0.1-0.5c0,0,0-0.1,0-0.1c0,0,0,0,0,0c0,0,0,0,0,0s0,0,0,0C8.6,6.8,8.5,6.7,8.4,6.6
	C8.4,6.6,8.4,6.6,8.4,6.6L8.4,6.6L8.4,6.6z M6.9,14.3c1.1-0.4,2.2-0.7,3.3-0.9c-0.1,0-0.1-0.1-0.2-0.1c-0.1,0-0.1-0.1-0.2-0.2
	c-0.6-0.6-1.1-1.3-1.5-2.1c-0.3,0.8-0.6,1.6-1,2.3C7.2,13.8,7.1,14.1,6.9,14.3L6.9,14.3z M14.5,14.1c-0.5-0.3-1.1-0.4-1.6-0.3
	c0.5,0.2,1,0.3,1.5,0.3C14.4,14.2,14.5,14.2,14.5,14.1C14.5,14.2,14.5,14.2,14.5,14.1z"/>
</svg>
