<svg xmlns="http://www.w3.org/2000/svg" width="32.565" height="19.05" viewBox="0 0 32.565 19.05">
  <g id="Header" transform="translate(-1194.935 -54.5)">
    <g id="Group_1" data-name="Group 1" transform="translate(1188.451 -922.765)">
      <path id="Path_1" data-name="Path 1" d="M30.07,977.765q.254,0,.507.009a12.811,12.811,0,0,1,7.838,3.442.367.367,0,1,1-.479.556,12.052,12.052,0,0,0-7.39-3.264,12.378,12.378,0,0,0-7.308,2.3l-.028.021a13.479,13.479,0,0,1-8.253,2.765,12.825,12.825,0,0,1-7.841-3.442A.367.367,0,1,1,7.6,979.6a12.067,12.067,0,0,0,7.393,3.265,12.392,12.392,0,0,0,7.313-2.3l.026-.019a13.762,13.762,0,0,1,7.743-2.774Z" transform="translate(0 0)" fill="#081fe4" stroke="#081fe4" stroke-width="1" fill-rule="evenodd"/>
      <path id="Path_2" data-name="Path 2" d="M30.07,994.4q.254,0,.507.009a12.811,12.811,0,0,1,7.838,3.442.372.372,0,0,1,.132.252.344.344,0,0,1-.017.144.367.367,0,0,1-.326.253.355.355,0,0,1-.144-.02.37.37,0,0,1-.125-.074,12.052,12.052,0,0,0-7.39-3.264,12.378,12.378,0,0,0-7.308,2.3l-.028.021a13.479,13.479,0,0,1-8.253,2.765,12.825,12.825,0,0,1-7.841-3.442.367.367,0,1,1,.479-.556,12.067,12.067,0,0,0,7.393,3.265,12.391,12.391,0,0,0,7.312-2.3l.026-.019A13.763,13.763,0,0,1,30.07,994.4Z" transform="translate(0 -10.534)" fill="#081fe4" stroke="#081fe4" stroke-width="1" fill-rule="evenodd"/>
      <path id="Path_3" data-name="Path 3" d="M30.074,1011.044c.169,0,.338,0,.507.009a12.811,12.811,0,0,1,7.838,3.442.367.367,0,1,1-.479.556,12.052,12.052,0,0,0-7.39-3.264,12.378,12.378,0,0,0-7.308,2.3l-.028.021a13.479,13.479,0,0,1-8.253,2.765,12.825,12.825,0,0,1-7.841-3.442.367.367,0,1,1,.479-.556,12.067,12.067,0,0,0,7.393,3.265,12.391,12.391,0,0,0,7.312-2.3l.026-.019a13.762,13.762,0,0,1,7.743-2.774Z" transform="translate(-0.004 -21.069)" fill="#081fe4" stroke="#081fe4" stroke-width="1" fill-rule="evenodd"/>
    </g>
  </g>
</svg>
