<svg id="Calque_1" data-name="Calque 1" xmlns="http://www.w3.org/2000/svg" viewBox="0 0 200 139.13"><defs><style>.cls-1{fill:#2b4899;}.cls-2{fill:#fff;}</style></defs><g id="Groupe_1126" data-name="Groupe 1126"><g id="Ligne_106" data-name="Ligne 106"><rect class="cls-1" y="26.09" width="200" height="8.7"/></g><g id="Ligne_107" data-name="Ligne 107"><rect class="cls-1" y="104.35" width="200" height="8.7"/></g><g id="Ellipse_32" data-name="Ellipse 32"><circle class="cls-2" cx="60.87" cy="30.43" r="30.43"/><path class="cls-1" d="M60.87,60.87A30.44,30.44,0,1,1,91.3,30.44,30.47,30.47,0,0,1,60.87,60.87Zm0-52.17A21.74,21.74,0,1,0,82.61,30.44,21.76,21.76,0,0,0,60.87,8.7Z"/></g><g id="Ellipse_33" data-name="Ellipse 33"><circle class="cls-2" cx="139.13" cy="108.7" r="30.43"/><path class="cls-1" d="M139.13,139.13a30.44,30.44,0,1,1,30.44-30.43A30.46,30.46,0,0,1,139.13,139.13Zm0-52.17a21.74,21.74,0,1,0,21.74,21.74A21.76,21.76,0,0,0,139.13,87Z"/></g></g></svg>